<svg width="26" height="26" viewBox="0 0 26 26" fill="none" xmlns="http://www.w3.org/2000/svg">
<path d="M11.9999 18.0001C11.8683 18.0008 11.7379 17.9756 11.616 17.9258C11.4942 17.8761 11.3834 17.8027 11.2899 17.7101L7.28994 13.7101C7.10164 13.5218 6.99585 13.2664 6.99585 13.0001C6.99585 12.7338 7.10164 12.4784 7.28994 12.2901C7.47824 12.1018 7.73364 11.996 7.99994 11.996C8.26624 11.996 8.52164 12.1018 8.70994 12.2901L11.9999 15.5901L18.2899 9.29006C18.4782 9.10176 18.7336 8.99597 18.9999 8.99597C19.2662 8.99597 19.5216 9.10176 19.7099 9.29006C19.8982 9.47837 20.004 9.73376 20.004 10.0001C20.004 10.2664 19.8982 10.5218 19.7099 10.7101L12.7099 17.7101C12.6165 17.8027 12.5057 17.8761 12.3838 17.9258C12.262 17.9756 12.1315 18.0008 11.9999 18.0001Z" fill="#00FF0A"/>
<path d="M13 26C10.4288 26 7.91543 25.2376 5.77759 23.8091C3.63975 22.3807 1.97351 20.3503 0.989572 17.9749C0.0056327 15.5995 -0.251811 12.9856 0.249797 10.4638C0.751405 7.94208 1.98953 5.6257 3.80762 3.80762C5.6257 1.98953 7.94208 0.751405 10.4638 0.249797C12.9856 -0.251811 15.5995 0.0056327 17.9749 0.989572C20.3503 1.97351 22.3807 3.63975 23.8091 5.77759C25.2376 7.91543 26 10.4288 26 13C26 16.4478 24.6304 19.7544 22.1924 22.1924C19.7544 24.6304 16.4478 26 13 26ZM13 2.00001C10.8244 2.00001 8.69767 2.64514 6.88873 3.85384C5.07979 5.06254 3.66989 6.7805 2.83733 8.79049C2.00477 10.8005 1.78693 13.0122 2.21137 15.146C2.63581 17.2798 3.68345 19.2398 5.22183 20.7782C6.76021 22.3166 8.72022 23.3642 10.854 23.7886C12.9878 24.2131 15.1995 23.9952 17.2095 23.1627C19.2195 22.3301 20.9375 20.9202 22.1462 19.1113C23.3549 17.3023 24 15.1756 24 13C24 10.0826 22.8411 7.28473 20.7782 5.22183C18.7153 3.15893 15.9174 2.00001 13 2.00001Z" fill="#00FF0A"/>
</svg>
